<svg xmlns="http://www.w3.org/2000/svg" xmlns:xlink="http://www.w3.org/1999/xlink" preserveAspectRatio="xMidYMid" width="593.969" height="639" viewBox="0 0 593.969 639">
  <defs>
    <style>
      .cls-1 {
        fill: #44444f;
      }

      .cls-2 {
        fill: #65e496;
        fill-rule: evenodd;
      }

      .cls-3 {
        fill: #3d3d47;
      }
    </style>
  </defs>
  <g>
    <rect width="444.969" height="639" rx="5" ry="5" class="cls-1"/>
    <path d="M376.051,536.046 L541.470,370.655 C553.478,358.649 572.948,358.649 584.956,370.655 C596.964,382.661 596.964,402.128 584.956,414.134 L419.537,579.526 C407.529,591.531 388.059,591.531 376.051,579.526 C364.043,567.519 364.043,548.053 376.051,536.046 Z" class="cls-2"/>
    <path d="M295.258,490.231 L460.677,324.840 C472.685,312.834 492.155,312.834 504.163,324.840 C516.172,336.847 516.172,356.313 504.163,368.319 L338.745,533.710 C326.736,545.717 307.267,545.717 295.258,533.710 C283.250,521.704 283.250,502.237 295.258,490.231 Z" class="cls-2"/>
    <rect width="62.719" height="639" class="cls-3"/>
  </g>
</svg>
