<svg xmlns="http://www.w3.org/2000/svg" xmlns:xlink="http://www.w3.org/1999/xlink" preserveAspectRatio="xMidYMid" width="363.844" height="409" viewBox="0 0 363.844 409">
  <defs>
    <style>
      .cls-1 {
        fill: #44444f;
      }

      .cls-2 {
        fill: #65e496;
        fill-rule: evenodd;
      }

      .cls-3 {
        fill: #3d3d47;
      }
    </style>
  </defs>
  <g>
    <rect width="268.938" height="409" rx="5" ry="5" class="cls-1"/>
    <path d="M250.672,294.169 L356.327,233.170 C358.719,231.789 361.777,232.608 363.158,234.999 C364.538,237.391 363.719,240.449 361.327,241.829 L255.672,302.829 C253.281,304.210 250.223,303.391 248.842,301.000 C247.461,298.608 248.281,295.550 250.672,294.169 Z" class="cls-2"/>
    <path d="M250.672,267.170 L356.327,206.169 C358.719,204.789 361.777,205.608 363.158,207.999 C364.538,210.391 363.719,213.449 361.327,214.830 L255.672,275.829 C253.281,277.211 250.223,276.391 248.842,274.000 C247.461,271.608 248.281,268.550 250.672,267.170 Z" class="cls-2"/>
    <rect width="37.906" height="409" class="cls-3"/>
  </g>
</svg>
